<?xml version="1.0" encoding="UTF-8"?>
<svg width="30px" height="30px" viewBox="0 0 30 30" version="1.1" xmlns="http://www.w3.org/2000/svg" xmlns:xlink="http://www.w3.org/1999/xlink">
    <!-- Generator: Sketch 50.2 (55047) - http://www.bohemiancoding.com/sketch -->
    <title>dribbble</title>
    <desc>Created with Sketch.</desc>
    <defs></defs>
    <g id="Mockups" stroke="none" stroke-width="1" fill="none" fill-rule="evenodd">
        <g id="Fonts-1" transform="translate(-163.000000, -228.000000)" fill-rule="nonzero">
            <g id="dribbble" transform="translate(163.000000, 228.000000)">
                <circle id="Oval" fill="#F26798" cx="14.8932743" cy="14.8932743" r="14.8932743"></circle>
                <path d="M14.8930088,5.43504425 C9.67115044,5.43504425 5.42283186,9.67831858 5.42283186,14.8935398 C5.42283186,20.1087611 9.67115044,24.3517699 14.8930088,24.3517699 C20.1151327,24.3517699 24.3637168,20.1090265 24.3637168,14.8935398 C24.3637168,9.67831858 20.1151327,5.43504425 14.8930088,5.43504425 Z M21.1247788,9.89920354 C22.2050442,11.2380531 22.8615929,12.9289381 22.8918584,14.7714159 C22.5323894,14.6976106 21.0100885,14.4138053 19.1909735,14.4138053 C18.6039823,14.4138053 17.9861947,14.4432743 17.3668142,14.5197345 C17.3145133,14.3925664 17.2622124,14.2659292 17.2072566,14.1379646 C17.0466372,13.760177 16.8735398,13.3853097 16.6943363,13.0160177 C19.4941593,11.8624779 20.8446903,10.2615929 21.1247788,9.89920354 Z M14.8930088,6.91566372 C16.9109735,6.91566372 18.7555752,7.66539823 20.1645133,8.90017699 C19.9415044,9.20442478 18.7319469,10.7163717 16.0322124,11.7363717 C14.7825664,9.45212389 13.4147788,7.56053097 13.089292,7.12141593 C13.6693805,6.98707965 14.2730973,6.91566372 14.8930088,6.91566372 Z M11.4562832,7.69088496 C11.7321239,8.07079646 13.1020354,9.98256637 14.3838053,12.2484956 C10.9438938,13.1527434 7.88920354,13.2116814 7.1519469,13.2116814 L7.07362832,13.2116814 C7.60327434,10.7707965 9.25247788,8.74247788 11.4562832,7.69088496 Z M6.8920354,14.9060177 C6.8920354,14.840177 6.89309735,14.7743363 6.89522124,14.7087611 C6.94300885,14.709292 7.01362832,14.709292 7.10522124,14.709292 C8.09814159,14.709292 11.5446903,14.6272566 15.0963717,13.5732743 C15.3119469,13.9948673 15.5171681,14.4228319 15.7080531,14.850531 C15.6183186,14.8762832 15.5299115,14.9020354 15.4420354,14.930708 C11.4430088,16.2223009 9.24504425,19.6415044 8.90681416,20.200354 C7.65371681,18.7884956 6.8920354,16.9348673 6.8920354,14.9060177 Z M14.8930088,22.8958407 C13.0579646,22.8958407 11.3644248,22.2743363 10.0130973,21.2323009 C10.2416814,20.7841593 11.900708,17.7971681 16.2830973,16.2719469 C16.2857522,16.270885 16.2886726,16.269823 16.2918584,16.2690265 C17.390708,19.1299115 17.8561062,21.5309735 17.9838053,22.2751327 C17.0328319,22.6749558 15.9884071,22.8958407 14.8930088,22.8958407 Z M19.4248673,21.4874336 C19.3176106,20.8717699 18.8864602,18.6215044 17.8914159,15.8769027 C18.449469,15.7900885 18.9923894,15.7558407 19.5015929,15.7558407 C21.1738938,15.7558407 22.4819469,16.1219469 22.7859292,16.2148673 C22.4246018,18.3942478 21.1768142,20.2802655 19.4248673,21.4874336 Z" id="Shape" fill="#F1F2F2"></path>
            </g>
        </g>
    </g>
</svg>