<?xml version="1.0" encoding="UTF-8"?>
<svg width="30px" height="31px" viewBox="0 0 30 31" version="1.1" xmlns="http://www.w3.org/2000/svg" xmlns:xlink="http://www.w3.org/1999/xlink">
    <!-- Generator: Sketch 50.2 (55047) - http://www.bohemiancoding.com/sketch -->
    <title>linkedin</title>
    <desc>Created with Sketch.</desc>
    <defs></defs>
    <g id="Mockups" stroke="none" stroke-width="1" fill="none" fill-rule="evenodd">
        <g id="Fonts-1" transform="translate(-69.000000, -228.000000)" fill-rule="nonzero">
            <g id="linkedin" transform="translate(69.000000, 228.000000)">
                <circle id="Oval" fill="#007AB9" cx="14.8932743" cy="15.1584956" r="14.8932743"></circle>
                <path d="M23.7918584,16.3569027 L23.7918584,22.4970796 L20.2319469,22.4970796 L20.2319469,16.7684071 C20.2319469,15.33 19.7179646,14.3476991 18.4290265,14.3476991 C17.4453982,14.3476991 16.8610619,15.0090265 16.6030088,15.6493805 C16.509292,15.8782301 16.4851327,16.1960177 16.4851327,16.5169912 L16.4851327,22.4968142 L12.9249558,22.4968142 C12.9249558,22.4968142 12.9727434,12.7943363 12.9249558,11.79 L16.4853982,11.79 L16.4853982,13.3072566 C16.4782301,13.3192035 16.4681416,13.330885 16.4617699,13.3423009 L16.4853982,13.3423009 L16.4853982,13.3072566 C16.9584956,12.579292 17.8022124,11.5385841 19.6938053,11.5385841 C22.0359292,11.5385841 23.7918584,13.0688496 23.7918584,16.3569027 Z M9.20070796,6.62893805 C7.98292035,6.62893805 7.18619469,7.42831858 7.18619469,8.47858407 C7.18619469,9.50654867 7.95982301,10.3290265 9.1539823,10.3290265 L9.17707965,10.3290265 C10.4187611,10.3290265 11.1907965,9.50654867 11.1907965,8.47858407 C11.1671681,7.42831858 10.4187611,6.62893805 9.20070796,6.62893805 Z M7.39778761,22.4970796 L10.9566372,22.4970796 L10.9566372,11.79 L7.39778761,11.79 L7.39778761,22.4970796 Z" id="Shape" fill="#F1F2F2"></path>
            </g>
        </g>
    </g>
</svg>